<?xml version="1.0" encoding="UTF-8" standalone="no"?>
<!-- Created with Inkscape (http://www.inkscape.org/) -->

<svg
   xmlns:dc="http://purl.org/dc/elements/1.1/"
   xmlns:cc="http://creativecommons.org/ns#"
   xmlns:rdf="http://www.w3.org/1999/02/22-rdf-syntax-ns#"
   xmlns:svg="http://www.w3.org/2000/svg"
   xmlns="http://www.w3.org/2000/svg"
   xmlns:sodipodi="http://sodipodi.sourceforge.net/DTD/sodipodi-0.dtd"
   xmlns:inkscape="http://www.inkscape.org/namespaces/inkscape"
   id="svg4411"
   sodipodi:docname="smoke.svg"
   viewBox="0 0 212.49211 268.29077"
   version="1.1"
   inkscape:version="0.91 r13725"
   width="212.49211"
   height="268.29077"
   inkscape:export-filename="/home/frank/Musik/Smokehouse/smokehouse-band-hugo/static/pictures/smoke.png"
   inkscape:export-xdpi="42.349998"
   inkscape:export-ydpi="42.349998">
  <defs
     id="defs16" />
  <sodipodi:namedview
     id="base"
     bordercolor="#666666"
     inkscape:pageshadow="2"
     inkscape:window-y="24"
     pagecolor="#ffffff"
     inkscape:window-height="1113"
     inkscape:window-maximized="1"
     inkscape:zoom="1.5528951"
     inkscape:window-x="0"
     showgrid="false"
     borderopacity="1.0"
     inkscape:current-layer="layer1"
     inkscape:cx="-28.241614"
     inkscape:cy="303.94841"
     inkscape:window-width="1920"
     inkscape:pageopacity="0"
     inkscape:document-units="px"
     inkscape:snap-text-baseline="true"
     fit-margin-top="0"
     fit-margin-left="0"
     fit-margin-right="0"
     fit-margin-bottom="0" />
  <g
     id="layer1"
     inkscape:label="Layer 1"
     inkscape:groupmode="layer"
     transform="translate(-147.27736,-286.97322)">
    <rect
       x="10.78126"
       y="435.46317"
       width="39.990292"
       height="119.79581"
       style="fill:#000000"
       id="rect3987"
       transform="scale(-1,1)" />
    <rect
       x="72.586075"
       y="435.121"
       width="39.815727"
       height="120.14298"
       style="fill:#000000"
       id="rect3989"
       transform="scale(-1,1)" />
    <path
       inkscape:connector-curvature="0"
       d="m -10.781271,416.24702 0,-50.03552 c 0,-36.25707 15.837491,-60.91007 65.398736,-60.91007 l 104.975355,0 c 50.41204,0 92.39437,-36.2605 92.39437,-97.30355 0.24697,-8.771 -2.27828,-22.87268 -2.27828,-22.87268 40.58341,-2.53214 110.06057,-39.62651 110.06057,-119.883843 0,-61.1692113 -47.46995,-117.791071 -114.73016,-117.874181 l -0.45928,39.845551 c 35.87714,0 74.83082,27.73786 74.83082,76.982255 0,78.933228 -79.02124,82.248388 -89.21611,82.248388 -21.30458,0 -37.35281,14.38968 -21.30458,39.32627 10.60414,16.47756 0,79.02614 -43.13334,79.02614 l -97.264407,0 c -84.341163,0 -119.453544,40.18929 -119.453544,99.40608 0,23.41446 0,17.62562 0.174694,52.2163 l 40.003003,-0.1747 z"
       style="fill:#000000"
       sodipodi:nodetypes="ccscccscccssscscc"
       id="path3997" />
    <path
       inkscape:connector-curvature="0"
       d="m -72.781719,416.78488 0.174694,-76.2097 c 0,-62.91969 51.458411,-128.11795 116.68114,-128.11795 l 61.961315,0 c 20.54669,0 43.28053,-11.18845 19.58687,-41.48994 -40.214244,-68.3472 -1.91273,-145.212104 79.19725,-145.212104 0.12348,0 0,-39.760945 0,-39.760945 C 101.10083,-11.000996 44.224701,75.733523 81.336956,170.96876 -78.372863,162.07794 -112.4291,288.03126 -112.4291,346.31072 l 0,69.95096 39.640674,0.52388 z"
       style="fill:#000000"
       sodipodi:nodetypes="ccscccccscc"
       id="path3999" />
    <rect
       x="-466.39716"
       y="1.9021807"
       width="39.990292"
       height="119.79581"
       style="fill:#000000"
       id="rect3987-3"
       transform="matrix(0,-1,-1,0,0,0)" />
    <path
       id="path20293"
       d="m 50.430247,215.52172 c -18.615581,-0.61902 -33.863234,6.24743 -33.863234,6.24743 l -0.01111,34.84566 c -1.895399,-0.75238 -4.200329,-0.93075 -6.541377,-0.36174 -5.0471734,1.22637 -8.3523134,5.4567 -7.3821094,9.45032 0.970204,3.99362 5.847897,6.23742 10.8945154,5.01161 4.758779,-1.15635 7.967232,-4.98383 7.505468,-8.76406 l 0,-26.03604 c 0,0 10.782269,-3.76968 24.767987,-4.71488 l 0,19.36463 c -1.874839,-0.71793 -4.13587,-0.88074 -6.434131,-0.32229 -5.047174,1.22581 -8.352311,5.45615 -7.382107,9.45032 0.969648,3.99362 5.847339,6.23687 10.894512,5.01106 4.407039,-1.07078 7.485464,-4.4326 7.549922,-7.92612 l 0.0017,0.002 0,-41.25813 z"
       inkscape:connector-curvature="0"
       style="fill:#000000" />
    <path
       id="path20293-6"
       d="m 184.28275,189.90747 c -21.0563,-0.70018 -38.3031,7.06654 -38.3031,7.06654 l -0.0126,39.41432 c -2.14391,-0.85103 -4.75104,-1.05279 -7.39902,-0.40917 -5.70892,1.38716 -9.4474,6.17213 -8.34999,10.68936 1.09741,4.51723 6.61462,7.05522 12.32291,5.66869 5.38271,-1.30796 9.01182,-5.63727 8.48952,-9.91313 l 0,-29.44966 c 0,0 12.19595,-4.26392 28.01535,-5.33305 l 0,21.90355 c -2.12065,-0.81206 -4.67813,-0.99621 -7.27772,-0.36454 -5.70892,1.38652 -9.44739,6.17151 -8.34998,10.68936 1.09678,4.51723 6.61399,7.05459 12.3229,5.66807 4.98485,-1.21117 8.4669,-5.01377 8.5398,-8.96533 l 0.002,0.002 0,-46.66754 z"
       inkscape:connector-curvature="0"
       style="fill:#000000" />
    <path
       id="path20293-6-2"
       d="m 189.93535,114.50307 c -22.1499,-0.73654 -40.29245,7.43356 -40.29245,7.43356 l -0.0132,41.46138 c -2.25526,-0.89522 -4.9978,-1.10746 -7.78331,-0.43042 -6.00542,1.45921 -9.93807,6.4927 -8.78366,11.24454 1.1544,4.75184 6.95816,7.42164 12.96292,5.9631 5.66227,-1.37589 9.47987,-5.93005 8.93044,-10.42798 l 0,-30.97919 c 0,0 12.82937,-4.48538 29.47039,-5.61004 l 0,23.04116 c -2.23079,-0.85423 -4.9211,-1.04795 -7.6557,-0.38348 -6.00543,1.45854 -9.93806,6.49204 -8.78366,11.24454 1.15375,4.75184 6.9575,7.42099 12.96292,5.96245 5.24375,-1.27408 8.90664,-5.27417 8.98333,-9.43096 l 0.002,0.002 0,-49.09131 z"
       inkscape:connector-curvature="0"
       style="fill:#000000" />
    <path
       id="path20293-6-2-6"
       d="m 207.02112,39.649347 c -23.49701,-0.781341 -42.74295,7.885647 -42.74295,7.885647 l -0.014,43.982983 c -2.39242,-0.949671 -5.30176,-1.174814 -8.25667,-0.456596 -6.37067,1.547952 -10.54249,6.887566 -9.31787,11.928409 1.22461,5.04083 7.38134,7.87301 13.7513,6.32576 6.00664,-1.45957 10.05642,-6.2907 9.47358,-11.062192 l 0,-32.863277 c 0,0 13.60962,-4.758176 31.26271,-5.951228 l 0,24.442475 c -2.36646,-0.906188 -5.22038,-1.11169 -8.1213,-0.406802 -6.37067,1.547245 -10.54248,6.886876 -9.31787,11.928408 1.22392,5.040836 7.38065,7.872316 13.7513,6.325066 5.56267,-1.35156 9.44833,-5.59492 9.52968,-10.004521 l 0.003,0.0025 0,-52.076948 z"
       inkscape:connector-curvature="0"
       style="fill:#000000" />
    <path
       id="path20293-6-2-6-1"
       d="m 291.23874,32.997851 c -27.76825,-0.923372 -50.51269,9.319088 -50.51269,9.319088 l -0.0166,51.978139 c -2.82731,-1.122301 -6.2655,-1.388369 -9.75755,-0.539596 -7.52871,1.829337 -12.45888,8.139578 -11.01165,14.096738 1.44721,5.95715 8.72311,9.30416 16.25098,7.47565 7.09852,-1.72489 11.88446,-7.43421 11.19567,-13.07306 l 0,-38.837115 c 0,0 16.08356,-5.623109 36.94561,-7.033033 l 0,28.885589 c -2.79664,-1.070913 -6.16935,-1.313771 -9.59759,-0.480749 -7.52871,1.828501 -12.45887,8.138761 -11.01165,14.096735 1.4464,5.957153 8.72229,9.303333 16.25099,7.474833 6.57383,-1.59725 11.16583,-6.611963 11.26197,-11.823133 l 0.003,0.003 0,-61.543412 z"
       inkscape:connector-curvature="0"
       style="fill:#000000" />
  </g>
  <metadata
     id="metadata14">
    <rdf:RDF>
      <cc:Work>
        <dc:format>image/svg+xml</dc:format>
        <dc:type
           rdf:resource="http://purl.org/dc/dcmitype/StillImage" />
        <cc:license
           rdf:resource="http://creativecommons.org/publicdomain/zero/1.0/" />
        <dc:publisher>
          <cc:Agent
             rdf:about="http://openclipart.org/">
            <dc:title>Openclipart</dc:title>
          </cc:Agent>
        </dc:publisher>
        <dc:title />
        <dc:date>2010-05-27T11:30:25</dc:date>
        <dc:description>Simple standardised &quot;NO SMOKING&quot; sign. Designed from scratch.</dc:description>
        <dc:source>https://openclipart.org/detail/63223/sign-no-smoking-by-dbdeveloper</dc:source>
        <dc:creator>
          <cc:Agent>
            <dc:title>dbdeveloper</dc:title>
          </cc:Agent>
        </dc:creator>
        <dc:subject>
          <rdf:Bag>
            <rdf:li>No smoking</rdf:li>
            <rdf:li>cigarette</rdf:li>
            <rdf:li>healthy</rdf:li>
            <rdf:li>nature</rdf:li>
            <rdf:li>restricted sign</rdf:li>
          </rdf:Bag>
        </dc:subject>
      </cc:Work>
      <cc:License
         rdf:about="http://creativecommons.org/publicdomain/zero/1.0/">
        <cc:permits
           rdf:resource="http://creativecommons.org/ns#Reproduction" />
        <cc:permits
           rdf:resource="http://creativecommons.org/ns#Distribution" />
        <cc:permits
           rdf:resource="http://creativecommons.org/ns#DerivativeWorks" />
      </cc:License>
    </rdf:RDF>
  </metadata>
</svg>
