<?xml version="1.0" encoding="UTF-8" standalone="no"?>
<!-- Created with Inkscape (http://www.inkscape.org/) -->

<svg
   xmlns:dc="http://purl.org/dc/elements/1.1/"
   xmlns:cc="http://creativecommons.org/ns#"
   xmlns:rdf="http://www.w3.org/1999/02/22-rdf-syntax-ns#"
   xmlns:svg="http://www.w3.org/2000/svg"
   xmlns="http://www.w3.org/2000/svg"
   xmlns:sodipodi="http://sodipodi.sourceforge.net/DTD/sodipodi-0.dtd"
   xmlns:inkscape="http://www.inkscape.org/namespaces/inkscape"
   id="svg4411"
   sodipodi:docname="smokehouse-logo1.svg"
   viewBox="0 0 457.95392 268.29077"
   version="1.1"
   inkscape:version="0.91 r13725"
   width="457.95392"
   height="268.29077"
   inkscape:export-filename="/home/frank/Musik/Smokehouse/smokehouse-band-hugo/static/pictures/smokehouse-logo1.svg.png"
   inkscape:export-xdpi="235.83"
   inkscape:export-ydpi="235.83">
  <defs
     id="defs16" />
  <sodipodi:namedview
     id="base"
     bordercolor="#666666"
     inkscape:pageshadow="2"
     inkscape:window-y="24"
     pagecolor="#ffffff"
     inkscape:window-height="1113"
     inkscape:window-maximized="1"
     inkscape:zoom="1.4"
     inkscape:window-x="0"
     showgrid="false"
     borderopacity="1.0"
     inkscape:current-layer="layer1"
     inkscape:cx="35.932127"
     inkscape:cy="137.1849"
     inkscape:window-width="1920"
     inkscape:pageopacity="1"
     inkscape:document-units="px"
     inkscape:snap-text-baseline="true"
     fit-margin-top="0"
     fit-margin-left="0"
     fit-margin-right="0"
     fit-margin-bottom="0" />
  <g
     id="layer1"
     inkscape:label="Layer 1"
     inkscape:groupmode="layer"
     transform="translate(-147.27736,-286.97322)">
    <rect
       x="-196.22964"
       y="502.39078"
       width="17.64942"
       height="52.870998"
       style="fill:#000000"
       id="rect3987"
       transform="scale(-1,1)" />
    <rect
       x="-168.95255"
       y="502.23978"
       width="17.572378"
       height="53.02422"
       style="fill:#000000"
       id="rect3989"
       transform="scale(-1,1)" />
    <path
       inkscape:connector-curvature="0"
       d="m 196.22964,493.90988 0,-22.08281 c 0,-16.00179 6.98976,-26.88221 28.86325,-26.88221 l 46.3301,0 c 22.24898,0 40.77757,-16.0033 40.77757,-42.9442 0.109,-3.87102 -1.0055,-10.09469 -1.0055,-10.09469 17.91119,-1.11754 48.57442,-17.48887 48.57442,-52.90985 0,-26.99658 -20.95051,-51.98622 -50.63531,-52.0229 l -0.2027,17.58554 c 15.83411,0 33.02603,12.2419 33.02603,33.97555 0,34.8366 -34.87544,36.29972 -39.37487,36.29972 -9.40262,0 -16.48539,6.35078 -9.40262,17.35636 4.68006,7.27225 0,34.8776 -19.03658,34.8776 l -42.92693,0 c -37.22335,0 -52.71994,17.73725 -52.71994,43.87214 0,10.3338 0,7.77894 0.0771,23.04528 l 17.65503,-0.0771 z"
       style="fill:#000000"
       sodipodi:nodetypes="ccscccscccssscscc"
       id="path3997" />
    <path
       inkscape:connector-curvature="0"
       d="m 168.8662,494.14726 0.0771,-33.63459 c 0,-27.76914 22.71079,-56.54391 51.49636,-56.54391 l 27.34617,0 c 9.06813,0 19.10154,-4.93794 8.64452,-18.31128 -17.74826,-30.16453 -0.84417,-64.08829 34.95312,-64.08829 0.0545,0 0,-17.5482 0,-17.5482 -45.77549,1.32613 -70.87735,39.60577 -54.49813,81.63714 -70.48675,-3.9239 -85.51722,51.66467 -85.51722,77.38588 l 0,30.87234 17.49512,0.23121 z"
       style="fill:#000000"
       sodipodi:nodetypes="ccscccccscc"
       id="path3999" />
    <rect
       x="-516.04327"
       y="-200.14836"
       width="17.64942"
       height="52.870998"
       style="fill:#000000"
       id="rect3987-3"
       transform="matrix(0,-1,-1,0,0,0)" />
    <text
       xml:space="preserve"
       style="font-style:normal;font-variant:normal;font-weight:normal;font-stretch:condensed;font-size:75.04902649px;line-height:125%;font-family:Impact;-inkscape-font-specification:'Impact, Condensed';text-align:start;letter-spacing:0px;word-spacing:0px;writing-mode:lr-tb;text-anchor:start;fill:#000000;fill-opacity:1;stroke:none;stroke-width:1px;stroke-linecap:butt;stroke-linejoin:miter;stroke-opacity:1"
       x="207.30286"
       y="531.97003"
       id="text3612"
       sodipodi:linespacing="125%"><tspan
         sodipodi:role="line"
         id="tspan3614"
         x="207.30286"
         y="531.97003">Smokehouse</tspan></text>
    <g
       id="g3428"
       transform="matrix(0.57671958,0,0,0.57671958,448.20592,288.0497)">
      <rect
         id="rect3417"
         height="270"
         width="270"
         y="0"
         x="0"
         style="fill:#ffffff;fill-opacity:1" />
      <g
         id="elements">
        <path
           id="path3420"
           d="m 10,10 10,0 0,10 -10,0 z m 10,0 10,0 0,10 -10,0 z m 10,0 10,0 0,10 -10,0 z m 10,0 10,0 0,10 -10,0 z m 10,0 10,0 0,10 -10,0 z m 10,0 10,0 0,10 -10,0 z m 10,0 10,0 0,10 -10,0 z m 50,0 10,0 0,10 -10,0 z m 10,0 10,0 0,10 -10,0 z m 10,0 10,0 0,10 -10,0 z m 50,0 10,0 0,10 -10,0 z m 10,0 10,0 0,10 -10,0 z m 10,0 10,0 0,10 -10,0 z m 10,0 10,0 0,10 -10,0 z m 10,0 10,0 0,10 -10,0 z m 10,0 10,0 0,10 -10,0 z m 10,0 10,0 0,10 -10,0 z m -240,10 10,0 0,10 -10,0 z m 60,0 10,0 0,10 -10,0 z m 20,0 10,0 0,10 -10,0 z m 20,0 10,0 0,10 -10,0 z m 20,0 10,0 0,10 -10,0 z m 20,0 10,0 0,10 -10,0 z m 10,0 10,0 0,10 -10,0 z m 10,0 10,0 0,10 -10,0 z m 20,0 10,0 0,10 -10,0 z m 60,0 10,0 0,10 -10,0 z m -240,10 10,0 0,10 -10,0 z m 20,0 10,0 0,10 -10,0 z m 10,0 10,0 0,10 -10,0 z m 10,0 10,0 0,10 -10,0 z m 20,0 10,0 0,10 -10,0 z m 30,0 10,0 0,10 -10,0 z m 20,0 10,0 0,10 -10,0 z m 10,0 10,0 0,10 -10,0 z m 20,0 10,0 0,10 -10,0 z m 10,0 10,0 0,10 -10,0 z m 10,0 10,0 0,10 -10,0 z m 20,0 10,0 0,10 -10,0 z m 20,0 10,0 0,10 -10,0 z m 10,0 10,0 0,10 -10,0 z m 10,0 10,0 0,10 -10,0 z m 20,0 10,0 0,10 -10,0 z m -240,10 10,0 0,10 -10,0 z m 20,0 10,0 0,10 -10,0 z m 10,0 10,0 0,10 -10,0 z m 10,0 10,0 0,10 -10,0 z m 20,0 10,0 0,10 -10,0 z m 20,0 10,0 0,10 -10,0 z m 20,0 10,0 0,10 -10,0 z m 20,0 10,0 0,10 -10,0 z m 10,0 10,0 0,10 -10,0 z m 10,0 10,0 0,10 -10,0 z m 10,0 10,0 0,10 -10,0 z m 30,0 10,0 0,10 -10,0 z m 20,0 10,0 0,10 -10,0 z m 10,0 10,0 0,10 -10,0 z m 10,0 10,0 0,10 -10,0 z m 20,0 10,0 0,10 -10,0 z m -240,10 10,0 0,10 -10,0 z m 20,0 10,0 0,10 -10,0 z m 10,0 10,0 0,10 -10,0 z m 10,0 10,0 0,10 -10,0 z m 20,0 10,0 0,10 -10,0 z m 50,0 10,0 0,10 -10,0 z m 50,0 10,0 0,10 -10,0 z m 20,0 10,0 0,10 -10,0 z m 20,0 10,0 0,10 -10,0 z m 10,0 10,0 0,10 -10,0 z m 10,0 10,0 0,10 -10,0 z m 20,0 10,0 0,10 -10,0 z m -240,10 10,0 0,10 -10,0 z m 60,0 10,0 0,10 -10,0 z m 20,0 10,0 0,10 -10,0 z m 10,0 10,0 0,10 -10,0 z m 40,0 10,0 0,10 -10,0 z m 20,0 10,0 0,10 -10,0 z m 10,0 10,0 0,10 -10,0 z m 20,0 10,0 0,10 -10,0 z m 60,0 10,0 0,10 -10,0 z m -240,10 10,0 0,10 -10,0 z m 10,0 10,0 0,10 -10,0 z m 10,0 10,0 0,10 -10,0 z m 10,0 10,0 0,10 -10,0 z m 10,0 10,0 0,10 -10,0 z m 10,0 10,0 0,10 -10,0 z m 10,0 10,0 0,10 -10,0 z m 20,0 10,0 0,10 -10,0 z m 20,0 10,0 0,10 -10,0 z m 20,0 10,0 0,10 -10,0 z m 20,0 10,0 0,10 -10,0 z m 20,0 10,0 0,10 -10,0 z m 20,0 10,0 0,10 -10,0 z m 10,0 10,0 0,10 -10,0 z m 10,0 10,0 0,10 -10,0 z m 10,0 10,0 0,10 -10,0 z m 10,0 10,0 0,10 -10,0 z m 10,0 10,0 0,10 -10,0 z m 10,0 10,0 0,10 -10,0 z m -150,10 10,0 0,10 -10,0 z m 10,0 10,0 0,10 -10,0 z m -100,10 10,0 0,10 -10,0 z m 10,0 10,0 0,10 -10,0 z m 10,0 10,0 0,10 -10,0 z m 10,0 10,0 0,10 -10,0 z m 10,0 10,0 0,10 -10,0 z m 20,0 10,0 0,10 -10,0 z m 10,0 10,0 0,10 -10,0 z m 10,0 10,0 0,10 -10,0 z m 20,0 10,0 0,10 -10,0 z m 30,0 10,0 0,10 -10,0 z m 10,0 10,0 0,10 -10,0 z m 10,0 10,0 0,10 -10,0 z m 10,0 10,0 0,10 -10,0 z m 10,0 10,0 0,10 -10,0 z m 20,0 10,0 0,10 -10,0 z m 20,0 10,0 0,10 -10,0 z m 20,0 10,0 0,10 -10,0 z m -230,10 10,0 0,10 -10,0 z m 20,0 10,0 0,10 -10,0 z m 10,0 10,0 0,10 -10,0 z m 10,0 10,0 0,10 -10,0 z m 10,0 10,0 0,10 -10,0 z m 20,0 10,0 0,10 -10,0 z m 40,0 10,0 0,10 -10,0 z m 50,0 10,0 0,10 -10,0 z m 30,0 10,0 0,10 -10,0 z m 40,0 10,0 0,10 -10,0 z m -230,10 10,0 0,10 -10,0 z m 10,0 10,0 0,10 -10,0 z m 10,0 10,0 0,10 -10,0 z m 40,0 10,0 0,10 -10,0 z m 40,0 10,0 0,10 -10,0 z m 20,0 10,0 0,10 -10,0 z m 30,0 10,0 0,10 -10,0 z m 10,0 10,0 0,10 -10,0 z m 10,0 10,0 0,10 -10,0 z m 20,0 10,0 0,10 -10,0 z m 20,0 10,0 0,10 -10,0 z m 20,0 10,0 0,10 -10,0 z m 10,0 10,0 0,10 -10,0 z m -230,10 10,0 0,10 -10,0 z m 20,0 10,0 0,10 -10,0 z m 20,0 10,0 0,10 -10,0 z m 20,0 10,0 0,10 -10,0 z m 20,0 10,0 0,10 -10,0 z m 10,0 10,0 0,10 -10,0 z m 20,0 10,0 0,10 -10,0 z m 20,0 10,0 0,10 -10,0 z m 10,0 10,0 0,10 -10,0 z m 10,0 10,0 0,10 -10,0 z m 10,0 10,0 0,10 -10,0 z m 20,0 10,0 0,10 -10,0 z m 10,0 10,0 0,10 -10,0 z m 40,0 10,0 0,10 -10,0 z m -240,10 10,0 0,10 -10,0 z m 40,0 10,0 0,10 -10,0 z m 20,0 10,0 0,10 -10,0 z m 10,0 10,0 0,10 -10,0 z m 20,0 10,0 0,10 -10,0 z m 20,0 10,0 0,10 -10,0 z m 10,0 10,0 0,10 -10,0 z m 10,0 10,0 0,10 -10,0 z m 10,0 10,0 0,10 -10,0 z m 10,0 10,0 0,10 -10,0 z m 10,0 10,0 0,10 -10,0 z m 10,0 10,0 0,10 -10,0 z m 10,0 10,0 0,10 -10,0 z m 20,0 10,0 0,10 -10,0 z m 20,0 10,0 0,10 -10,0 z m 10,0 10,0 0,10 -10,0 z m 10,0 10,0 0,10 -10,0 z m -240,10 10,0 0,10 -10,0 z m 20,0 10,0 0,10 -10,0 z m 10,0 10,0 0,10 -10,0 z m 50,0 10,0 0,10 -10,0 z m 30,0 10,0 0,10 -10,0 z m 20,0 10,0 0,10 -10,0 z m 30,0 10,0 0,10 -10,0 z m 30,0 10,0 0,10 -10,0 z m 20,0 10,0 0,10 -10,0 z m 20,0 10,0 0,10 -10,0 z m -230,10 10,0 0,10 -10,0 z m 30,0 10,0 0,10 -10,0 z m 10,0 10,0 0,10 -10,0 z m 10,0 10,0 0,10 -10,0 z m 10,0 10,0 0,10 -10,0 z m 20,0 10,0 0,10 -10,0 z m 10,0 10,0 0,10 -10,0 z m 10,0 10,0 0,10 -10,0 z m 20,0 10,0 0,10 -10,0 z m 10,0 10,0 0,10 -10,0 z m 10,0 10,0 0,10 -10,0 z m 10,0 10,0 0,10 -10,0 z m 10,0 10,0 0,10 -10,0 z m 30,0 10,0 0,10 -10,0 z m 10,0 10,0 0,10 -10,0 z m 10,0 10,0 0,10 -10,0 z m 20,0 10,0 0,10 -10,0 z m 10,0 10,0 0,10 -10,0 z m -240,10 10,0 0,10 -10,0 z m 20,0 10,0 0,10 -10,0 z m 10,0 10,0 0,10 -10,0 z m 50,0 10,0 0,10 -10,0 z m 10,0 10,0 0,10 -10,0 z m 10,0 10,0 0,10 -10,0 z m 60,0 10,0 0,10 -10,0 z m 10,0 10,0 0,10 -10,0 z m 40,0 10,0 0,10 -10,0 z m 30,0 10,0 0,10 -10,0 z m -240,10 10,0 0,10 -10,0 z m 20,0 10,0 0,10 -10,0 z m 10,0 10,0 0,10 -10,0 z m 30,0 10,0 0,10 -10,0 z m 30,0 10,0 0,10 -10,0 z m 40,0 10,0 0,10 -10,0 z m 10,0 10,0 0,10 -10,0 z m 20,0 10,0 0,10 -10,0 z m 10,0 10,0 0,10 -10,0 z m 10,0 10,0 0,10 -10,0 z m 10,0 10,0 0,10 -10,0 z m 10,0 10,0 0,10 -10,0 z m 20,0 10,0 0,10 -10,0 z m -140,10 10,0 0,10 -10,0 z m 10,0 10,0 0,10 -10,0 z m 20,0 10,0 0,10 -10,0 z m 40,0 10,0 0,10 -10,0 z m 10,0 10,0 0,10 -10,0 z m 40,0 10,0 0,10 -10,0 z m 10,0 10,0 0,10 -10,0 z m 10,0 10,0 0,10 -10,0 z m -220,10 10,0 0,10 -10,0 z m 10,0 10,0 0,10 -10,0 z m 10,0 10,0 0,10 -10,0 z m 10,0 10,0 0,10 -10,0 z m 10,0 10,0 0,10 -10,0 z m 10,0 10,0 0,10 -10,0 z m 10,0 10,0 0,10 -10,0 z m 20,0 10,0 0,10 -10,0 z m 10,0 10,0 0,10 -10,0 z m 50,0 10,0 0,10 -10,0 z m 20,0 10,0 0,10 -10,0 z m 20,0 10,0 0,10 -10,0 z m 20,0 10,0 0,10 -10,0 z m 10,0 10,0 0,10 -10,0 z m 10,0 10,0 0,10 -10,0 z m 10,0 10,0 0,10 -10,0 z m 10,0 10,0 0,10 -10,0 z m -240,10 10,0 0,10 -10,0 z m 60,0 10,0 0,10 -10,0 z m 30,0 10,0 0,10 -10,0 z m 10,0 10,0 0,10 -10,0 z m 20,0 10,0 0,10 -10,0 z m 40,0 10,0 0,10 -10,0 z m 40,0 10,0 0,10 -10,0 z m 10,0 10,0 0,10 -10,0 z m 30,0 10,0 0,10 -10,0 z m -240,10 10,0 0,10 -10,0 z m 20,0 10,0 0,10 -10,0 z m 10,0 10,0 0,10 -10,0 z m 10,0 10,0 0,10 -10,0 z m 20,0 10,0 0,10 -10,0 z m 20,0 10,0 0,10 -10,0 z m 30,0 10,0 0,10 -10,0 z m 10,0 10,0 0,10 -10,0 z m 10,0 10,0 0,10 -10,0 z m 20,0 10,0 0,10 -10,0 z m 10,0 10,0 0,10 -10,0 z m 10,0 10,0 0,10 -10,0 z m 10,0 10,0 0,10 -10,0 z m 10,0 10,0 0,10 -10,0 z m 10,0 10,0 0,10 -10,0 z m 10,0 10,0 0,10 -10,0 z m 10,0 10,0 0,10 -10,0 z m 20,0 10,0 0,10 -10,0 z m -240,10 10,0 0,10 -10,0 z m 20,0 10,0 0,10 -10,0 z m 10,0 10,0 0,10 -10,0 z m 10,0 10,0 0,10 -10,0 z m 20,0 10,0 0,10 -10,0 z m 20,0 10,0 0,10 -10,0 z m 20,0 10,0 0,10 -10,0 z m 10,0 10,0 0,10 -10,0 z m 20,0 10,0 0,10 -10,0 z m 20,0 10,0 0,10 -10,0 z m 20,0 10,0 0,10 -10,0 z m 10,0 10,0 0,10 -10,0 z m 10,0 10,0 0,10 -10,0 z m 10,0 10,0 0,10 -10,0 z m 20,0 10,0 0,10 -10,0 z m -220,10 10,0 0,10 -10,0 z m 20,0 10,0 0,10 -10,0 z m 10,0 10,0 0,10 -10,0 z m 10,0 10,0 0,10 -10,0 z m 20,0 10,0 0,10 -10,0 z m 20,0 10,0 0,10 -10,0 z m 10,0 10,0 0,10 -10,0 z m 40,0 10,0 0,10 -10,0 z m 10,0 10,0 0,10 -10,0 z m 10,0 10,0 0,10 -10,0 z m 10,0 10,0 0,10 -10,0 z m 30,0 10,0 0,10 -10,0 z m 30,0 10,0 0,10 -10,0 z m 20,0 10,0 0,10 -10,0 z m -240,10 10,0 0,10 -10,0 z m 60,0 10,0 0,10 -10,0 z m 20,0 10,0 0,10 -10,0 z m 10,0 10,0 0,10 -10,0 z m 20,0 10,0 0,10 -10,0 z m 40,0 10,0 0,10 -10,0 z m 10,0 10,0 0,10 -10,0 z m 10,0 10,0 0,10 -10,0 z m 10,0 10,0 0,10 -10,0 z m 10,0 10,0 0,10 -10,0 z m 10,0 10,0 0,10 -10,0 z m 10,0 10,0 0,10 -10,0 z m 30,0 10,0 0,10 -10,0 z m -240,10 10,0 0,10 -10,0 z m 10,0 10,0 0,10 -10,0 z m 10,0 10,0 0,10 -10,0 z m 10,0 10,0 0,10 -10,0 z m 10,0 10,0 0,10 -10,0 z m 10,0 10,0 0,10 -10,0 z m 10,0 10,0 0,10 -10,0 z m 20,0 10,0 0,10 -10,0 z m 10,0 10,0 0,10 -10,0 z m 10,0 10,0 0,10 -10,0 z m 20,0 10,0 0,10 -10,0 z m 10,0 10,0 0,10 -10,0 z m 10,0 10,0 0,10 -10,0 z m 30,0 10,0 0,10 -10,0 z m 10,0 10,0 0,10 -10,0 z m 10,0 10,0 0,10 -10,0 z m 10,0 10,0 0,10 -10,0 z m 10,0 10,0 0,10 -10,0 z m 10,0 10,0 0,10 -10,0 z m 10,0 10,0 0,10 -10,0 z m 10,0 10,0 0,10 -10,0 z"
           style="fill:#000000"
           inkscape:connector-curvature="0" />
      </g>
    </g>
  </g>
  <metadata
     id="metadata14">
    <rdf:RDF>
      <cc:Work>
        <dc:format>image/svg+xml</dc:format>
        <dc:type
           rdf:resource="http://purl.org/dc/dcmitype/StillImage" />
        <cc:license
           rdf:resource="http://creativecommons.org/publicdomain/zero/1.0/" />
        <dc:publisher>
          <cc:Agent
             rdf:about="http://openclipart.org/">
            <dc:title>Openclipart</dc:title>
          </cc:Agent>
        </dc:publisher>
        <dc:title></dc:title>
        <dc:date>2010-05-27T11:30:25</dc:date>
        <dc:description>Simple standardised &quot;NO SMOKING&quot; sign. Designed from scratch.</dc:description>
        <dc:source>https://openclipart.org/detail/63223/sign-no-smoking-by-dbdeveloper</dc:source>
        <dc:creator>
          <cc:Agent>
            <dc:title>dbdeveloper</dc:title>
          </cc:Agent>
        </dc:creator>
        <dc:subject>
          <rdf:Bag>
            <rdf:li>No smoking</rdf:li>
            <rdf:li>cigarette</rdf:li>
            <rdf:li>healthy</rdf:li>
            <rdf:li>nature</rdf:li>
            <rdf:li>restricted sign</rdf:li>
          </rdf:Bag>
        </dc:subject>
      </cc:Work>
      <cc:License
         rdf:about="http://creativecommons.org/publicdomain/zero/1.0/">
        <cc:permits
           rdf:resource="http://creativecommons.org/ns#Reproduction" />
        <cc:permits
           rdf:resource="http://creativecommons.org/ns#Distribution" />
        <cc:permits
           rdf:resource="http://creativecommons.org/ns#DerivativeWorks" />
      </cc:License>
    </rdf:RDF>
  </metadata>
</svg>
