<?xml version="1.0" encoding="UTF-8" standalone="no"?>
<!-- Created with Inkscape (http://www.inkscape.org/) -->

<svg
   xmlns:dc="http://purl.org/dc/elements/1.1/"
   xmlns:cc="http://creativecommons.org/ns#"
   xmlns:rdf="http://www.w3.org/1999/02/22-rdf-syntax-ns#"
   xmlns:svg="http://www.w3.org/2000/svg"
   xmlns="http://www.w3.org/2000/svg"
   xmlns:sodipodi="http://sodipodi.sourceforge.net/DTD/sodipodi-0.dtd"
   xmlns:inkscape="http://www.inkscape.org/namespaces/inkscape"
   id="svg4411"
   sodipodi:docname="smokehouse-logo4.svg"
   viewBox="0 0 457.95392 268.29077"
   version="1.1"
   inkscape:version="0.91 r13725"
   width="457.95392"
   height="268.29077"
   inkscape:export-filename="/home/frank/Musik/Smokehouse/smokehouse-band-hugo/static/pictures/smokehouse-logo4.svg.png"
   inkscape:export-xdpi="946.21997"
   inkscape:export-ydpi="946.21997">
  <defs
     id="defs16">
    <linearGradient
       x1="382.34"
       y1="489.14"
       gradientTransform="matrix(2.0779,0,0,2.0779,-518.08,-281.8)"
       x2="490.53"
       gradientUnits="userSpaceOnUse"
       y2="333.89"
       id="linearGradient3033">
      <stop
         offset="0"
         style="stop-color:#000000;stop-opacity:.82639"
         id="stop3015" />
      <stop
         offset="1"
         style="stop-color:#000000"
         id="stop3017" />
    </linearGradient>
    <linearGradient
       x1="382.34"
       y1="489.14"
       gradientTransform="matrix(2.0779,0,0,2.0779,-518.08,-281.8)"
       x2="490.53"
       gradientUnits="userSpaceOnUse"
       y2="333.89"
       id="linearGradient3019">
      <stop
         offset="0"
         style="stop-color:#000000;stop-opacity:.82639"
         id="stop3015-6" />
      <stop
         offset="1"
         style="stop-color:#000000"
         id="stop3017-7" />
    </linearGradient>
  </defs>
  <sodipodi:namedview
     id="base"
     bordercolor="#666666"
     inkscape:pageshadow="2"
     inkscape:window-y="24"
     pagecolor="#ffffff"
     inkscape:window-height="1113"
     inkscape:window-maximized="1"
     inkscape:zoom="0.94419065"
     inkscape:window-x="0"
     showgrid="false"
     borderopacity="1.0"
     inkscape:current-layer="layer1"
     inkscape:cx="228.97696"
     inkscape:cy="132.92857"
     inkscape:window-width="1920"
     inkscape:pageopacity="1"
     inkscape:document-units="px"
     inkscape:snap-text-baseline="true"
     fit-margin-top="0"
     fit-margin-left="0"
     fit-margin-right="0"
     fit-margin-bottom="0" />
  <g
     id="layer1"
     inkscape:label="Layer 1"
     inkscape:groupmode="layer"
     transform="translate(-147.27736,-286.97322)">
    <rect
       x="-196.22964"
       y="502.39078"
       width="17.64942"
       height="52.870998"
       style="fill:#000000"
       id="rect3987"
       transform="scale(-1,1)"
       inkscape:export-xdpi="5.4299998"
       inkscape:export-ydpi="5.4299998" />
    <rect
       x="-168.95255"
       y="502.23978"
       width="17.572378"
       height="53.02422"
       style="fill:#000000"
       id="rect3989"
       transform="scale(-1,1)"
       inkscape:export-xdpi="5.4299998"
       inkscape:export-ydpi="5.4299998" />
    <path
       inkscape:connector-curvature="0"
       d="m 205.12039,493.9132 0,-21.77439 c 0,-15.77828 8.375,-26.50673 34.58341,-26.50673 l 55.51191,0 c 26.65831,0 48.85894,-15.7798 48.85894,-42.34441 0.1306,-3.81696 -1.20477,-9.9537 -1.20477,-9.9537 21.46087,-1.10193 58.201,-17.2446 58.201,-52.17087 0,-26.61951 -25.10253,-51.26012 -60.67032,-51.29629 l -0.24287,17.33992 c 18.97215,0 39.57118,12.07092 39.57118,33.50101 0,34.35005 -41.78711,35.79273 -47.17824,35.79273 -11.26606,0 -19.75251,6.26209 -11.26606,17.11395 5.60756,7.17067 0,34.39047 -22.80927,34.39047 l -51.43429,0 c -44.60035,0 -63.16809,17.48951 -63.16809,43.25937 0,10.18948 0,7.6703 0.0925,22.72341 l 21.15394,-0.076 z"
       style="fill:#000000"
       sodipodi:nodetypes="ccscccscccssscscc"
       id="path3997"
       inkscape:export-xdpi="5.4299998"
       inkscape:export-ydpi="5.4299998" />
    <path
       inkscape:connector-curvature="0"
       d="m 172.334,494.14727 0.0924,-33.16483 c 0,-27.38129 27.21166,-55.75416 61.702,-55.75416 l 32.76571,0 c 10.86526,0 22.8871,-4.86897 10.3577,-18.05552 -21.26564,-29.74323 -1.01147,-63.19318 41.8802,-63.19318 0.0652,0 0,-17.30311 0,-17.30311 -54.84738,1.30761 -84.92397,39.0526 -65.29868,80.49692 -84.45596,-3.86909 -102.4652,50.94308 -102.4652,76.30504 l 0,30.44114 20.96234,0.22799 z"
       style="fill:#000000"
       sodipodi:nodetypes="ccscccccscc"
       id="path3999"
       inkscape:export-xdpi="5.4299998"
       inkscape:export-ydpi="5.4299998" />
    <rect
       x="-516.04327"
       y="-200.14836"
       width="17.64942"
       height="52.870998"
       style="fill:#000000"
       id="rect3987-3"
       transform="matrix(0,-1,-1,0,0,0)"
       inkscape:export-xdpi="5.4299998"
       inkscape:export-ydpi="5.4299998" />
    <text
       xml:space="preserve"
       style="font-style:normal;font-variant:normal;font-weight:normal;font-stretch:condensed;font-size:75.04902649px;line-height:125%;font-family:Impact;-inkscape-font-specification:'Impact, Condensed';text-align:start;letter-spacing:0px;word-spacing:0px;writing-mode:lr-tb;text-anchor:start;fill:#000000;fill-opacity:1;stroke:none;stroke-width:1px;stroke-linecap:butt;stroke-linejoin:miter;stroke-opacity:1"
       x="207.30286"
       y="519.97003"
       id="text3612"
       sodipodi:linespacing="125%"><tspan
         sodipodi:role="line"
         id="tspan3614"
         x="207.30286"
         y="519.97003">Smokehouse</tspan></text>
    <flowRoot
       xml:space="preserve"
       id="flowRoot3435"
       style="fill:black;stroke:none;stroke-opacity:1;stroke-width:1px;stroke-linejoin:miter;stroke-linecap:butt;fill-opacity:1;font-family:Impact;font-style:normal;font-weight:normal;font-size:40px;line-height:125%;letter-spacing:0px;word-spacing:0px;-inkscape-font-specification:'Impact, Condensed';font-stretch:condensed;font-variant:normal;text-anchor:start;text-align:start;writing-mode:lr"><flowRegion
         id="flowRegion3437"><rect
           id="rect3439"
           width="52.142857"
           height="46.72253"
           x="282.85715"
           y="232.99681" /></flowRegion><flowPara
         id="flowPara3441" /></flowRoot>    <text
       xml:space="preserve"
       style="font-style:normal;font-variant:normal;font-weight:normal;font-stretch:condensed;font-size:26.0016613px;line-height:125%;font-family:Impact;-inkscape-font-specification:'Impact, Condensed';text-align:start;letter-spacing:0px;word-spacing:0px;writing-mode:lr-tb;text-anchor:start;fill:#ffffff;fill-opacity:1;stroke:none;stroke-width:1px;stroke-linecap:butt;stroke-linejoin:miter;stroke-opacity:1;"
       x="213.28252"
       y="549.26959"
       id="text3612-3"
       sodipodi:linespacing="125%"><tspan
         sodipodi:role="line"
         id="tspan3614-6"
         x="213.28252"
         y="549.26959">http://smokehouse-band.github.io</tspan></text>
    <g
       id="g3428"
       transform="matrix(0.47486773,0,0,0.47486773,476.20593,289.40685)">
      <rect
         id="rect3417"
         height="270"
         width="270"
         y="0"
         x="0"
         style="fill:#ffffff;fill-opacity:1" />
      <g
         id="elements">
        <path
           id="path3420"
           d="m 10,10 10,0 0,10 -10,0 z m 10,0 10,0 0,10 -10,0 z m 10,0 10,0 0,10 -10,0 z m 10,0 10,0 0,10 -10,0 z m 10,0 10,0 0,10 -10,0 z m 10,0 10,0 0,10 -10,0 z m 10,0 10,0 0,10 -10,0 z m 50,0 10,0 0,10 -10,0 z m 10,0 10,0 0,10 -10,0 z m 10,0 10,0 0,10 -10,0 z m 50,0 10,0 0,10 -10,0 z m 10,0 10,0 0,10 -10,0 z m 10,0 10,0 0,10 -10,0 z m 10,0 10,0 0,10 -10,0 z m 10,0 10,0 0,10 -10,0 z m 10,0 10,0 0,10 -10,0 z m 10,0 10,0 0,10 -10,0 z m -240,10 10,0 0,10 -10,0 z m 60,0 10,0 0,10 -10,0 z m 20,0 10,0 0,10 -10,0 z m 20,0 10,0 0,10 -10,0 z m 20,0 10,0 0,10 -10,0 z m 20,0 10,0 0,10 -10,0 z m 10,0 10,0 0,10 -10,0 z m 10,0 10,0 0,10 -10,0 z m 20,0 10,0 0,10 -10,0 z m 60,0 10,0 0,10 -10,0 z m -240,10 10,0 0,10 -10,0 z m 20,0 10,0 0,10 -10,0 z m 10,0 10,0 0,10 -10,0 z m 10,0 10,0 0,10 -10,0 z m 20,0 10,0 0,10 -10,0 z m 30,0 10,0 0,10 -10,0 z m 20,0 10,0 0,10 -10,0 z m 10,0 10,0 0,10 -10,0 z m 20,0 10,0 0,10 -10,0 z m 10,0 10,0 0,10 -10,0 z m 10,0 10,0 0,10 -10,0 z m 20,0 10,0 0,10 -10,0 z m 20,0 10,0 0,10 -10,0 z m 10,0 10,0 0,10 -10,0 z m 10,0 10,0 0,10 -10,0 z m 20,0 10,0 0,10 -10,0 z m -240,10 10,0 0,10 -10,0 z m 20,0 10,0 0,10 -10,0 z m 10,0 10,0 0,10 -10,0 z m 10,0 10,0 0,10 -10,0 z m 20,0 10,0 0,10 -10,0 z m 20,0 10,0 0,10 -10,0 z m 20,0 10,0 0,10 -10,0 z m 20,0 10,0 0,10 -10,0 z m 10,0 10,0 0,10 -10,0 z m 10,0 10,0 0,10 -10,0 z m 10,0 10,0 0,10 -10,0 z m 30,0 10,0 0,10 -10,0 z m 20,0 10,0 0,10 -10,0 z m 10,0 10,0 0,10 -10,0 z m 10,0 10,0 0,10 -10,0 z m 20,0 10,0 0,10 -10,0 z m -240,10 10,0 0,10 -10,0 z m 20,0 10,0 0,10 -10,0 z m 10,0 10,0 0,10 -10,0 z m 10,0 10,0 0,10 -10,0 z m 20,0 10,0 0,10 -10,0 z m 50,0 10,0 0,10 -10,0 z m 50,0 10,0 0,10 -10,0 z m 20,0 10,0 0,10 -10,0 z m 20,0 10,0 0,10 -10,0 z m 10,0 10,0 0,10 -10,0 z m 10,0 10,0 0,10 -10,0 z m 20,0 10,0 0,10 -10,0 z m -240,10 10,0 0,10 -10,0 z m 60,0 10,0 0,10 -10,0 z m 20,0 10,0 0,10 -10,0 z m 10,0 10,0 0,10 -10,0 z m 40,0 10,0 0,10 -10,0 z m 20,0 10,0 0,10 -10,0 z m 10,0 10,0 0,10 -10,0 z m 20,0 10,0 0,10 -10,0 z m 60,0 10,0 0,10 -10,0 z m -240,10 10,0 0,10 -10,0 z m 10,0 10,0 0,10 -10,0 z m 10,0 10,0 0,10 -10,0 z m 10,0 10,0 0,10 -10,0 z m 10,0 10,0 0,10 -10,0 z m 10,0 10,0 0,10 -10,0 z m 10,0 10,0 0,10 -10,0 z m 20,0 10,0 0,10 -10,0 z m 20,0 10,0 0,10 -10,0 z m 20,0 10,0 0,10 -10,0 z m 20,0 10,0 0,10 -10,0 z m 20,0 10,0 0,10 -10,0 z m 20,0 10,0 0,10 -10,0 z m 10,0 10,0 0,10 -10,0 z m 10,0 10,0 0,10 -10,0 z m 10,0 10,0 0,10 -10,0 z m 10,0 10,0 0,10 -10,0 z m 10,0 10,0 0,10 -10,0 z m 10,0 10,0 0,10 -10,0 z m -150,10 10,0 0,10 -10,0 z m 10,0 10,0 0,10 -10,0 z m -100,10 10,0 0,10 -10,0 z m 10,0 10,0 0,10 -10,0 z m 10,0 10,0 0,10 -10,0 z m 10,0 10,0 0,10 -10,0 z m 10,0 10,0 0,10 -10,0 z m 20,0 10,0 0,10 -10,0 z m 10,0 10,0 0,10 -10,0 z m 10,0 10,0 0,10 -10,0 z m 20,0 10,0 0,10 -10,0 z m 30,0 10,0 0,10 -10,0 z m 10,0 10,0 0,10 -10,0 z m 10,0 10,0 0,10 -10,0 z m 10,0 10,0 0,10 -10,0 z m 10,0 10,0 0,10 -10,0 z m 20,0 10,0 0,10 -10,0 z m 20,0 10,0 0,10 -10,0 z m 20,0 10,0 0,10 -10,0 z m -230,10 10,0 0,10 -10,0 z m 20,0 10,0 0,10 -10,0 z m 10,0 10,0 0,10 -10,0 z m 10,0 10,0 0,10 -10,0 z m 10,0 10,0 0,10 -10,0 z m 20,0 10,0 0,10 -10,0 z m 40,0 10,0 0,10 -10,0 z m 50,0 10,0 0,10 -10,0 z m 30,0 10,0 0,10 -10,0 z m 40,0 10,0 0,10 -10,0 z m -230,10 10,0 0,10 -10,0 z m 10,0 10,0 0,10 -10,0 z m 10,0 10,0 0,10 -10,0 z m 40,0 10,0 0,10 -10,0 z m 40,0 10,0 0,10 -10,0 z m 20,0 10,0 0,10 -10,0 z m 30,0 10,0 0,10 -10,0 z m 10,0 10,0 0,10 -10,0 z m 10,0 10,0 0,10 -10,0 z m 20,0 10,0 0,10 -10,0 z m 20,0 10,0 0,10 -10,0 z m 20,0 10,0 0,10 -10,0 z m 10,0 10,0 0,10 -10,0 z m -230,10 10,0 0,10 -10,0 z m 20,0 10,0 0,10 -10,0 z m 20,0 10,0 0,10 -10,0 z m 20,0 10,0 0,10 -10,0 z m 20,0 10,0 0,10 -10,0 z m 10,0 10,0 0,10 -10,0 z m 20,0 10,0 0,10 -10,0 z m 20,0 10,0 0,10 -10,0 z m 10,0 10,0 0,10 -10,0 z m 10,0 10,0 0,10 -10,0 z m 10,0 10,0 0,10 -10,0 z m 20,0 10,0 0,10 -10,0 z m 10,0 10,0 0,10 -10,0 z m 40,0 10,0 0,10 -10,0 z m -240,10 10,0 0,10 -10,0 z m 40,0 10,0 0,10 -10,0 z m 20,0 10,0 0,10 -10,0 z m 10,0 10,0 0,10 -10,0 z m 20,0 10,0 0,10 -10,0 z m 20,0 10,0 0,10 -10,0 z m 10,0 10,0 0,10 -10,0 z m 10,0 10,0 0,10 -10,0 z m 10,0 10,0 0,10 -10,0 z m 10,0 10,0 0,10 -10,0 z m 10,0 10,0 0,10 -10,0 z m 10,0 10,0 0,10 -10,0 z m 10,0 10,0 0,10 -10,0 z m 20,0 10,0 0,10 -10,0 z m 20,0 10,0 0,10 -10,0 z m 10,0 10,0 0,10 -10,0 z m 10,0 10,0 0,10 -10,0 z m -240,10 10,0 0,10 -10,0 z m 20,0 10,0 0,10 -10,0 z m 10,0 10,0 0,10 -10,0 z m 50,0 10,0 0,10 -10,0 z m 30,0 10,0 0,10 -10,0 z m 20,0 10,0 0,10 -10,0 z m 30,0 10,0 0,10 -10,0 z m 30,0 10,0 0,10 -10,0 z m 20,0 10,0 0,10 -10,0 z m 20,0 10,0 0,10 -10,0 z m -230,10 10,0 0,10 -10,0 z m 30,0 10,0 0,10 -10,0 z m 10,0 10,0 0,10 -10,0 z m 10,0 10,0 0,10 -10,0 z m 10,0 10,0 0,10 -10,0 z m 20,0 10,0 0,10 -10,0 z m 10,0 10,0 0,10 -10,0 z m 10,0 10,0 0,10 -10,0 z m 20,0 10,0 0,10 -10,0 z m 10,0 10,0 0,10 -10,0 z m 10,0 10,0 0,10 -10,0 z m 10,0 10,0 0,10 -10,0 z m 10,0 10,0 0,10 -10,0 z m 30,0 10,0 0,10 -10,0 z m 10,0 10,0 0,10 -10,0 z m 10,0 10,0 0,10 -10,0 z m 20,0 10,0 0,10 -10,0 z m 10,0 10,0 0,10 -10,0 z m -240,10 10,0 0,10 -10,0 z m 20,0 10,0 0,10 -10,0 z m 10,0 10,0 0,10 -10,0 z m 50,0 10,0 0,10 -10,0 z m 10,0 10,0 0,10 -10,0 z m 10,0 10,0 0,10 -10,0 z m 60,0 10,0 0,10 -10,0 z m 10,0 10,0 0,10 -10,0 z m 40,0 10,0 0,10 -10,0 z m 30,0 10,0 0,10 -10,0 z m -240,10 10,0 0,10 -10,0 z m 20,0 10,0 0,10 -10,0 z m 10,0 10,0 0,10 -10,0 z m 30,0 10,0 0,10 -10,0 z m 30,0 10,0 0,10 -10,0 z m 40,0 10,0 0,10 -10,0 z m 10,0 10,0 0,10 -10,0 z m 20,0 10,0 0,10 -10,0 z m 10,0 10,0 0,10 -10,0 z m 10,0 10,0 0,10 -10,0 z m 10,0 10,0 0,10 -10,0 z m 10,0 10,0 0,10 -10,0 z m 20,0 10,0 0,10 -10,0 z m -140,10 10,0 0,10 -10,0 z m 10,0 10,0 0,10 -10,0 z m 20,0 10,0 0,10 -10,0 z m 40,0 10,0 0,10 -10,0 z m 10,0 10,0 0,10 -10,0 z m 40,0 10,0 0,10 -10,0 z m 10,0 10,0 0,10 -10,0 z m 10,0 10,0 0,10 -10,0 z m -220,10 10,0 0,10 -10,0 z m 10,0 10,0 0,10 -10,0 z m 10,0 10,0 0,10 -10,0 z m 10,0 10,0 0,10 -10,0 z m 10,0 10,0 0,10 -10,0 z m 10,0 10,0 0,10 -10,0 z m 10,0 10,0 0,10 -10,0 z m 20,0 10,0 0,10 -10,0 z m 10,0 10,0 0,10 -10,0 z m 50,0 10,0 0,10 -10,0 z m 20,0 10,0 0,10 -10,0 z m 20,0 10,0 0,10 -10,0 z m 20,0 10,0 0,10 -10,0 z m 10,0 10,0 0,10 -10,0 z m 10,0 10,0 0,10 -10,0 z m 10,0 10,0 0,10 -10,0 z m 10,0 10,0 0,10 -10,0 z m -240,10 10,0 0,10 -10,0 z m 60,0 10,0 0,10 -10,0 z m 30,0 10,0 0,10 -10,0 z m 10,0 10,0 0,10 -10,0 z m 20,0 10,0 0,10 -10,0 z m 40,0 10,0 0,10 -10,0 z m 40,0 10,0 0,10 -10,0 z m 10,0 10,0 0,10 -10,0 z m 30,0 10,0 0,10 -10,0 z m -240,10 10,0 0,10 -10,0 z m 20,0 10,0 0,10 -10,0 z m 10,0 10,0 0,10 -10,0 z m 10,0 10,0 0,10 -10,0 z m 20,0 10,0 0,10 -10,0 z m 20,0 10,0 0,10 -10,0 z m 30,0 10,0 0,10 -10,0 z m 10,0 10,0 0,10 -10,0 z m 10,0 10,0 0,10 -10,0 z m 20,0 10,0 0,10 -10,0 z m 10,0 10,0 0,10 -10,0 z m 10,0 10,0 0,10 -10,0 z m 10,0 10,0 0,10 -10,0 z m 10,0 10,0 0,10 -10,0 z m 10,0 10,0 0,10 -10,0 z m 10,0 10,0 0,10 -10,0 z m 10,0 10,0 0,10 -10,0 z m 20,0 10,0 0,10 -10,0 z m -240,10 10,0 0,10 -10,0 z m 20,0 10,0 0,10 -10,0 z m 10,0 10,0 0,10 -10,0 z m 10,0 10,0 0,10 -10,0 z m 20,0 10,0 0,10 -10,0 z m 20,0 10,0 0,10 -10,0 z m 20,0 10,0 0,10 -10,0 z m 10,0 10,0 0,10 -10,0 z m 20,0 10,0 0,10 -10,0 z m 20,0 10,0 0,10 -10,0 z m 20,0 10,0 0,10 -10,0 z m 10,0 10,0 0,10 -10,0 z m 10,0 10,0 0,10 -10,0 z m 10,0 10,0 0,10 -10,0 z m 20,0 10,0 0,10 -10,0 z m -220,10 10,0 0,10 -10,0 z m 20,0 10,0 0,10 -10,0 z m 10,0 10,0 0,10 -10,0 z m 10,0 10,0 0,10 -10,0 z m 20,0 10,0 0,10 -10,0 z m 20,0 10,0 0,10 -10,0 z m 10,0 10,0 0,10 -10,0 z m 40,0 10,0 0,10 -10,0 z m 10,0 10,0 0,10 -10,0 z m 10,0 10,0 0,10 -10,0 z m 10,0 10,0 0,10 -10,0 z m 30,0 10,0 0,10 -10,0 z m 30,0 10,0 0,10 -10,0 z m 20,0 10,0 0,10 -10,0 z m -240,10 10,0 0,10 -10,0 z m 60,0 10,0 0,10 -10,0 z m 20,0 10,0 0,10 -10,0 z m 10,0 10,0 0,10 -10,0 z m 20,0 10,0 0,10 -10,0 z m 40,0 10,0 0,10 -10,0 z m 10,0 10,0 0,10 -10,0 z m 10,0 10,0 0,10 -10,0 z m 10,0 10,0 0,10 -10,0 z m 10,0 10,0 0,10 -10,0 z m 10,0 10,0 0,10 -10,0 z m 10,0 10,0 0,10 -10,0 z m 30,0 10,0 0,10 -10,0 z m -240,10 10,0 0,10 -10,0 z m 10,0 10,0 0,10 -10,0 z m 10,0 10,0 0,10 -10,0 z m 10,0 10,0 0,10 -10,0 z m 10,0 10,0 0,10 -10,0 z m 10,0 10,0 0,10 -10,0 z m 10,0 10,0 0,10 -10,0 z m 20,0 10,0 0,10 -10,0 z m 10,0 10,0 0,10 -10,0 z m 10,0 10,0 0,10 -10,0 z m 20,0 10,0 0,10 -10,0 z m 10,0 10,0 0,10 -10,0 z m 10,0 10,0 0,10 -10,0 z m 30,0 10,0 0,10 -10,0 z m 10,0 10,0 0,10 -10,0 z m 10,0 10,0 0,10 -10,0 z m 10,0 10,0 0,10 -10,0 z m 10,0 10,0 0,10 -10,0 z m 10,0 10,0 0,10 -10,0 z m 10,0 10,0 0,10 -10,0 z m 10,0 10,0 0,10 -10,0 z"
           style="fill:#000000"
           inkscape:connector-curvature="0" />
      </g>
    </g>
    <g
       id="layer1-3"
       transform="matrix(0.09200502,0.00192822,-0.00192822,0.09200502,261.4774,348.53712)"
       style="fill:#000000;fill-opacity:1"
       inkscape:transform-center-x="8.0391478"
       inkscape:transform-center-y="4.0188565"
       inkscape:export-xdpi="5.4299998"
       inkscape:export-ydpi="5.4299998">
      <path
         d="m 405.69,224.28 c -27.693,12.634 -18.245,57.254 -19.335,86.185 -1.1892,107.52 3.5802,210.59 0.66265,318.09 -0.188,35.283 -34.706,24.684 -56.812,18.011 -47.827,-6.0307 -98.444,12.647 -131.26,47.772 -25.557,27.982 -37.247,77.623 -7.5783,106.92 26.23,25.588 66.736,30.145 101.44,24.377 37.208,-8.3736 71.683,-28.449 99.589,-54.146 21.635,-19.671 26,-48.743 26.852,-77.758 1.3095,-40.253 -0.62362,-80.752 2.364,-120.85 -0.0361,-29.307 -3.586,-74.222 32.042,-60.444 25.098,17.621 47.474,41.212 62.641,68.072 13.797,30.342 24.555,63.962 19.637,97.673 -3.1264,26.779 26.627,19.408 25.662,-1.862 16.306,-48.252 2.9619,-103.28 -29.777,-141.53 -33.729,-46.829 -83.161,-82.097 -106.04,-136.47 -15.258,-32.923 21.129,-53.285 44.923,-26.675 24.732,24.117 49.907,50.141 58.181,84.928 9.2285,23.966 11.078,49.87 8.8527,75.199 13.219,33.997 30.634,-12.133 30.463,-28.976 7.831,-44.298 -8.6758,-90.222 -37.721,-123.71 -32.97,-44.7 -80.17,-78.97 -102.37,-131.23 -6.03,-8.49 -9.33,-24.37 -22.41,-23.57 z"
         style="fill:#000000;fill-opacity:1;fill-rule:evenodd;stroke:#000000;stroke-width:5.92409992;stroke-linecap:round;stroke-linejoin:round"
         id="path3"
         inkscape:connector-curvature="0" />
    </g>
    <g
       transform="matrix(-0.08323951,0,0,-0.08323951,318.6527,406.88042)"
       id="layer1-5"
       style="fill:#000000;fill-opacity:1"
       inkscape:export-xdpi="5.4299998"
       inkscape:export-ydpi="5.4299998">
      <path
         d="m 418.39,231.34 c 5.3071,163.8 3.0093,316.18 0.55337,483.27 -1.2461,42.809 -38.247,71.529 -72.88,89.908 -30.854,18.567 -67.795,28.966 -103.61,20.691 -33.304,-3.4173 -67.756,-27.73 -68.454,-63.704 -2.2204,-41.711 27.904,-80.552 64.988,-97.024 36.404,-20.749 82.429,-25.246 121.63,-10.331 19.156,6.0549 24.483,-11.721 26.874,-28.819 2.2123,-129.77 3.9829,-259.54 4.4354,-389.33 0.36593,-12.973 26.294,-17.166 26.461,-4.6603 z"
         style="fill:#000000;fill-opacity:1;fill-rule:evenodd;stroke:#000000;stroke-width:5.92409992;stroke-linecap:round;stroke-linejoin:round"
         id="path3-3"
         inkscape:connector-curvature="0" />
    </g>
    <path
       id="path3550"
       d="m 359.7075,311.39439 c -19.32851,-0.64273 -35.16012,6.48669 -35.16012,6.48669 l -0.0115,36.18016 c -1.96799,-0.78119 -4.3612,-0.9664 -6.7919,-0.37559 -5.24047,1.27334 -8.67218,5.66568 -7.66483,9.81224 1.00737,4.14656 6.07186,6.4763 11.31175,5.20354 4.94103,-1.20064 8.27236,-5.1747 7.79291,-9.0997 l 0,-27.03315 c 0,0 11.1952,-3.91404 25.71654,-4.89545 l 0,20.10624 c -1.94665,-0.74543 -4.29427,-0.91447 -6.68055,-0.33463 -5.24046,1.27276 -8.67218,5.6651 -7.66481,9.81224 1.00678,4.14657 6.07127,6.47573 11.31175,5.20298 4.57581,-1.1118 7.77212,-4.60237 7.83905,-8.22967 l 0,0.002 0,-42.8382 z"
       inkscape:connector-curvature="0"
       style="fill:#000000"
       inkscape:export-xdpi="5.4299998"
       inkscape:export-ydpi="5.4299998" />
    <path
       style="fill:#ffffff;fill-opacity:1"
       d="m 146.94336,64.320545 c 0.55265,-0.223 1.45699,-0.223 2.00964,0 0.55265,0.223 0.10048,0.405454 -1.00482,0.405454 -1.1053,0 -1.55747,-0.182454 -1.00482,-0.405454 z"
       id="path3559"
       inkscape:connector-curvature="0"
       transform="translate(147.27736,286.97322)"
       inkscape:export-xdpi="5.4299998"
       inkscape:export-ydpi="5.4299998" />
    <path
       style="fill:#000000;fill-opacity:0"
       d="m 142.30137,63.479383 c 0.26243,-0.262425 -0.14799,-0.934237 -0.91203,-1.492916 -1.04581,-0.764718 -1.53639,-0.784363 -1.98483,-0.07948 -0.33292,0.523287 -0.60111,-0.15702 -0.60799,-1.542261 -0.007,-1.363208 0.25899,-2.749861 0.59059,-3.081452 0.33159,-0.331591 0.60289,-1.007715 0.60289,-1.502498 0,-0.494783 1.49654,-1.951412 3.32564,-3.236954 4.17048,-2.931125 9.4522,-3.672369 13.02021,-1.827276 2.17112,1.122727 2.54478,1.758803 2.54478,4.331878 0,5.87638 -3.85743,8.731054 -11.94459,8.83953 -2.81149,0.03771 -4.89709,-0.146144 -4.63467,-0.408568 z"
       id="path4363"
       inkscape:connector-curvature="0"
       transform="translate(147.27736,286.97322)"
       inkscape:export-xdpi="5.4299998"
       inkscape:export-ydpi="5.4299998" />
    <path
       style="fill:#000000;fill-opacity:0"
       d="m 141.53405,63.142207 c -0.27549,-0.445752 -1.0069,-0.616282 -1.62536,-0.378956 -1.34537,0.516266 -1.55007,-3.117126 -0.353,-6.265661 1.89966,-4.996476 11.7409,-8.38695 16.78016,-5.781047 2.17112,1.122727 2.54478,1.758803 2.54478,4.331878 0,3.498184 -1.60954,6.146178 -4.67097,7.684611 -2.54421,1.278516 -11.95066,1.582161 -12.67561,0.409175 z"
       id="path4373"
       inkscape:connector-curvature="0"
       transform="translate(147.27736,286.97322)"
       inkscape:export-xdpi="5.4299998"
       inkscape:export-ydpi="5.4299998" />
    <path
       style="fill:#000000;fill-opacity:0"
       d="m 144.01374,61.279191 c -3.54978,-2.523806 -4.0691,-2.688424 -4.5612,-1.445849 -0.41702,1.052982 -0.5694,0.851644 -0.61183,-0.808381 -0.0311,-1.215833 0.32659,-2.210606 0.7948,-2.210606 0.46821,0 0.66023,-0.309154 0.4267,-0.687009 -0.60625,-0.980942 2.67723,-3.856306 5.96768,-5.225927 3.36147,-1.39918 9.756,-1.28176 11.55611,0.2122 2.84037,2.357299 1.07004,9.296881 -2.9159,11.430086 -3.78659,2.026522 -6.47638,1.707344 -10.65636,-1.264514 z"
       id="path4375"
       inkscape:connector-curvature="0"
       transform="translate(147.27736,286.97322)"
       inkscape:export-xdpi="5.4299998"
       inkscape:export-ydpi="5.4299998" />
    <path
       style="fill:#000000;fill-opacity:0"
       d="m 144.01374,61.279191 c -3.54978,-2.523806 -4.0691,-2.688424 -4.5612,-1.445849 -0.41702,1.052982 -0.5694,0.851644 -0.61183,-0.808381 -0.0311,-1.215833 0.32659,-2.210606 0.7948,-2.210606 0.46821,0 0.66023,-0.309154 0.4267,-0.687009 -0.60625,-0.980942 2.67723,-3.856306 5.96768,-5.225927 3.36147,-1.39918 9.756,-1.28176 11.55611,0.2122 2.84037,2.357299 1.07004,9.296881 -2.9159,11.430086 -3.78659,2.026522 -6.47638,1.707344 -10.65636,-1.264514 z"
       id="path4377"
       inkscape:connector-curvature="0"
       transform="translate(147.27736,286.97322)"
       inkscape:export-xdpi="5.4299998"
       inkscape:export-ydpi="5.4299998" />
    <path
       style="fill:#000000;fill-opacity:0"
       d="m 165.31149,109.00479 c 0,-3.44119 -1.88249,-7.96412 -4.50758,-10.830053 -5.39205,-5.886744 -8.1387,-1.059494 -3.12974,5.500533 1.5883,2.08014 2.66513,3.78207 2.39294,3.78207 -0.27218,0 -2.09743,-1.10259 -4.0561,-2.45019 l -3.56123,-2.45019 0,-8.354436 c 0,-4.594941 0.34584,-8.568182 0.76854,-8.829423 0.4227,-0.261242 1.3936,0.531314 2.15755,1.761236 0.76396,1.229922 3.14757,4.306544 5.29692,6.836939 2.14936,2.530393 4.43185,5.605146 5.07221,6.832784 1.33041,2.55051 1.57192,8.72416 0.37035,9.46678 -0.44257,0.27352 -0.80386,-0.29551 -0.80386,-1.26605 z"
       id="path4379"
       inkscape:connector-curvature="0"
       transform="translate(147.27736,286.97322)"
       inkscape:export-xdpi="5.4299998"
       inkscape:export-ydpi="5.4299998" />
    <path
       style="fill:#000000;fill-opacity:0"
       d="m 165.31149,109.00479 c 0,-3.44119 -1.88249,-7.96412 -4.50758,-10.830053 -5.39205,-5.886744 -8.1387,-1.059494 -3.12974,5.500533 1.5883,2.08014 2.66513,3.78207 2.39294,3.78207 -0.27218,0 -2.09743,-1.10259 -4.0561,-2.45019 l -3.56123,-2.45019 0,-8.354436 c 0,-4.594941 0.34584,-8.568182 0.76854,-8.829423 0.4227,-0.261242 1.3936,0.531314 2.15755,1.761236 0.76396,1.229922 3.14757,4.306544 5.29692,6.836939 2.14936,2.530393 4.43185,5.605146 5.07221,6.832784 1.33041,2.55051 1.57192,8.72416 0.37035,9.46678 -0.44257,0.27352 -0.80386,-0.29551 -0.80386,-1.26605 z"
       id="path4381"
       inkscape:connector-curvature="0"
       transform="translate(147.27736,286.97322)"
       inkscape:export-xdpi="5.4299998"
       inkscape:export-ydpi="5.4299998" />
  </g>
  <metadata
     id="metadata14">
    <rdf:RDF>
      <cc:Work>
        <dc:format>image/svg+xml</dc:format>
        <dc:type
           rdf:resource="http://purl.org/dc/dcmitype/StillImage" />
        <cc:license
           rdf:resource="http://creativecommons.org/publicdomain/zero/1.0/" />
        <dc:publisher>
          <cc:Agent
             rdf:about="http://openclipart.org/">
            <dc:title>Openclipart</dc:title>
          </cc:Agent>
        </dc:publisher>
        <dc:title />
        <dc:date>2010-05-27T11:30:25</dc:date>
        <dc:description>Simple standardised &quot;NO SMOKING&quot; sign. Designed from scratch.</dc:description>
        <dc:source>https://openclipart.org/detail/63223/sign-no-smoking-by-dbdeveloper</dc:source>
        <dc:creator>
          <cc:Agent>
            <dc:title>dbdeveloper</dc:title>
          </cc:Agent>
        </dc:creator>
        <dc:subject>
          <rdf:Bag>
            <rdf:li>No smoking</rdf:li>
            <rdf:li>cigarette</rdf:li>
            <rdf:li>healthy</rdf:li>
            <rdf:li>nature</rdf:li>
            <rdf:li>restricted sign</rdf:li>
          </rdf:Bag>
        </dc:subject>
      </cc:Work>
      <cc:License
         rdf:about="http://creativecommons.org/publicdomain/zero/1.0/">
        <cc:permits
           rdf:resource="http://creativecommons.org/ns#Reproduction" />
        <cc:permits
           rdf:resource="http://creativecommons.org/ns#Distribution" />
        <cc:permits
           rdf:resource="http://creativecommons.org/ns#DerivativeWorks" />
      </cc:License>
    </rdf:RDF>
  </metadata>
</svg>
